<svg width="1600" height="1200" xmlns="http://www.w3.org/2000/svg">
 <defs>
  <linearGradient id="a" x1="0.50004" y1="-0.00837" x2="0.50004" y2="0.99836">
   <stop offset="0" stop-color="#373736"/>
   <stop offset="1" stop-color="#191918"/>
  </linearGradient>
  <linearGradient id="b" x1="0.5" y1="-0.0081" x2="0.5" y2="0.99836">
   <stop offset="0" stop-color="#373736"/>
   <stop offset="1" stop-color="#191918"/>
  </linearGradient>
  <linearGradient id="c" x1="0.5013" y1="-0.0103" x2="0.5013" y2="0.99835">
   <stop offset="0" stop-color="#373736"/>
   <stop offset="1" stop-color="#191918"/>
  </linearGradient>
  <linearGradient id="d" x1="0.5012" y1="-0.42817" x2="0.5012" y2="0.99767">
   <stop offset="0" stop-color="#373736"/>
   <stop offset="1" stop-color="#191918"/>
  </linearGradient>
  <linearGradient id="e" x1="0.49993" y1="-0.42502" x2="0.49993" y2="0.99759">
   <stop offset="0" stop-color="#373736"/>
   <stop offset="1" stop-color="#191918"/>
  </linearGradient>
  <linearGradient id="f" x1="0.49996" y1="-0.42817" x2="0.49996" y2="0.99767">
   <stop offset="0" stop-color="#373736"/>
   <stop offset="1" stop-color="#191918"/>
  </linearGradient>
  <linearGradient id="g" x1="0.5" y1="-0.0344" x2="0.5" y2="4.24319">
   <stop offset="0" stop-color="#373736"/>
   <stop offset="1" stop-color="#191918"/>
  </linearGradient>
  <linearGradient id="h" x1="0.50002" y1="-0.42817" x2="0.50002" y2="0.99758">
   <stop offset="0" stop-color="#373736"/>
   <stop offset="1" stop-color="#191918"/>
  </linearGradient>
 </defs>
 <g>
  <title>Layer 1</title>
  <path d="m280.538,55.062c-10.909,0 -19.75,-8.842 -19.75,-19.75l0.063,-22.657a5.654,5.654 0 0 1 11.308,0l0,8.48l14.137,0a5.654,5.654 0 0 1 0,11.309l-14.136,0l0,2.849a8.459,8.459 0 0 0 8.459,8.459l8.504,0a5.654,5.654 0 0 1 0,11.309l-8.585,0l0,0.001z" fill="url(#a)" id="svg_1"/>
  <path d="m392.209,55.062c-10.906,0 -19.684,-8.842 -19.684,-19.75l0,-22.658a5.653,5.653 0 1 1 11.307,0l0,8.48l8.479,0a5.655,5.655 0 1 1 0,11.309l-8.479,0l0,2.849a8.458,8.458 0 0 0 8.457,8.459l2.852,0c3.121,0 5.652,2.532 5.652,5.655s-2.531,5.654 -5.652,5.654l-2.932,0.002z" fill="url(#b)" id="svg_2"/>
  <path d="m421.894,55.062c-10.908,0 -19.686,-8.842 -19.686,-19.75l0,-22.658a5.655,5.655 0 0 1 11.308,0l0,8.48l8.479,0a5.655,5.655 0 1 1 0,11.309l-8.479,0l0,2.849a8.458,8.458 0 0 0 8.458,8.459l2.853,0a5.655,5.655 0 0 1 0,11.309l-2.933,0.002z" fill="url(#c)" id="svg_3" stroke="null"/>
  <path d="m470.094,38.099c0,-9.369 7.506,-16.963 16.874,-16.963l8.48,0a5.655,5.655 0 0 1 0,11.309l-8.48,0a5.655,5.655 0 0 0 -5.657,5.654l0.093,11.309a5.655,5.655 0 0 1 -5.657,5.654a5.652,5.652 0 0 1 -5.651,-5.654l-0.002,-11.309z" fill="url(#d)" id="svg_4"/>
  <path d="m347.081,21.136a5.654,5.654 0 0 0 -5.653,5.655l0,11.309a5.654,5.654 0 0 1 -11.309,0l0,-11.309a5.654,5.654 0 1 0 -11.307,0l0,11.309a5.654,5.654 0 1 1 -11.308,0l0,-11.309a5.654,5.654 0 1 0 -11.307,0l0,11.309c0,9.369 7.594,16.963 16.963,16.963c4.352,0 8.307,-1.652 11.31,-4.345c3.002,2.692 6.958,4.345 11.309,4.345c9.369,0 16.962,-7.594 16.962,-16.963l0,-11.309a5.663,5.663 0 0 0 -5.66,-5.655z" fill="url(#e)" id="svg_5"/>
  <path d="m362.63,21.136a5.653,5.653 0 0 0 -5.653,5.655l0,22.617c0,3.123 2.529,5.654 5.653,5.654s5.654,-2.531 5.654,-5.654l0,-22.617a5.653,5.653 0 0 0 -5.654,-5.655z" fill="url(#f)" id="svg_6"/>
  <circle cx="362.63" cy="12.654" r="5.654" fill="url(#g)" id="svg_7"/>
  <path d="m536.246,21.848c2.773,-8.66 6.166,-14.272 10.069,-18.34c2.911,-3.036 4.413,-4 2.702,-0.657c0.755,-0.606 1.842,-1.41 2.685,-1.84c4.722,-2.227 4.386,-0.359 1.134,1.642c8.88,-3.176 8.571,0.869 -0.817,2.883c7.675,0.145 15.839,5.03 18.187,15.42c0.326,1.438 -0.062,1.302 1.41,1.562c3.18,0.563 6.169,0.529 9.084,-0.397c-0.314,2.15 -3.154,3.547 -7.583,4.469c-1.644,0.342 -1.979,0.252 -0.011,0.695c2.423,0.545 5.132,0.686 7.997,0.552c-2.23,2.568 -5.791,3.882 -10.189,3.936c-2.752,10.051 -9.042,17.247 -16.999,21.765c-18.689,10.607 -45.895,9.068 -59.537,-10.21c8.954,7.025 22.215,8.573 32.063,-1.218c-6.453,0 -8.125,-4.831 -3.008,-7.44c-4.845,-0.05 -7.922,-1.582 -9.729,-4.357c-0.687,-1.053 -0.693,-1.134 0.426,-1.942c1.229,-0.89 2.903,-1.285 4.64,-1.417c-5.015,-1.436 -8.078,-4.055 -9.142,-7.568c-0.351,-1.163 -0.406,-1.104 0.775,-1.403c1.158,-0.293 2.646,-0.449 3.979,-0.516c-3.938,-2.388 -6.291,-5.314 -6.89,-8.551c-0.567,-3.056 0.019,-2.271 2.304,-1.396c10.222,3.907 20.417,8.107 26.45,14.328z" fill="#00acec" id="svg_8"/>
  <path d="m465.819,35.272c0,1.976 -0.829,5.637 -3.778,5.637l-18.666,-0.001a5.657,5.657 0 0 0 5.479,4.259l12.049,0a4.947,4.947 0 0 1 4.948,4.948a4.947,4.947 0 0 1 -4.948,4.948l-12.049,0c-9.367,0 -16.962,-7.652 -16.962,-18.377c0,-9.41 7.598,-15.549 16.969,-15.549c9.368,0 16.965,6.329 16.965,14.136l-0.007,-0.001zm-11.305,-1.414c0,-2.602 -2.528,-4.712 -5.652,-4.712s-5.655,2.11 -5.655,4.712l11.307,0z" fill="url(#h)" id="svg_9"/>
 </g>
</svg>